<?xml version="1.0" encoding="utf-8"?>
<!-- Generator: Adobe Illustrator 25.4.1, SVG Export Plug-In . SVG Version: 6.00 Build 0)  -->
<svg version="1.1" id="Layer_1" xmlns="http://www.w3.org/2000/svg" xmlns:xlink="http://www.w3.org/1999/xlink" x="0px" y="0px"
	 viewBox="0 0 129 129" style="enable-background:new 0 0 129 129;" xml:space="preserve">
<style type="text/css">
	.st0{fill:url(#패스_12158_00000057836329088847780920000008261168773608284318_);}
	.st1{fill:url(#패스_12159_00000112592318056370711310000017159857925767512251_);}
</style>
<g id="_1" transform="translate(-1367 -189)">
	<g id="그룹_6136" transform="translate(678.958 -60.606)">
		<g id="그룹_6135" transform="translate(727.883 287)">
			<g id="그룹_6134" transform="translate(0)">
				
					<linearGradient id="패스_12158_00000050658980578357626680000015712753017563722674_" gradientUnits="userSpaceOnUse" x1="-61.5822" y1="71.6673" x2="-62.0864" y2="74.88" gradientTransform="matrix(7.452 0 0 -14.88 438.0087 1077.6428)">
					<stop  offset="0" style="stop-color:#006FDF"/>
					<stop  offset="1" style="stop-color:#3FA9F5"/>
				</linearGradient>
				<path id="패스_12158" style="fill:url(#패스_12158_00000050658980578357626680000015712753017563722674_);" d="M-8.3,9
					l-2.2-23.9h-25.3l5,54.8C-26.1,27.8-18.4,17.1-8.3,9z"/>
			</g>
			
				<linearGradient id="패스_12159_00000008142787103760126180000013239137649506671291_" gradientUnits="userSpaceOnUse" x1="-61.9895" y1="69.0924" x2="-58.3094" y2="69.0924" gradientTransform="matrix(30.8381 0 0 -22.8039 1883.1979 1602.7195)">
				<stop  offset="0" style="stop-color:#114194"/>
				<stop  offset="1" style="stop-color:#111259"/>
			</linearGradient>
			<path id="패스_12159" style="fill:url(#패스_12159_00000008142787103760126180000013239137649506671291_);" d="M83.7-14.8
				H59.6c1.3,9.1,1.1,18.4-0.7,27.4C55.7,31,49,45.1,43.7,44.2c-1.3-0.2-2.4-1.4-3.3-3.2c-0.4-2.1-1-4.1-1.6-6
				c-4.2-13.2-12.1-22.4-22.4-24.2c-0.7-0.1-1.4-0.2-2-0.2C-3.8,9.2-22.4,32-27.6,62.8c-0.3,2-0.6,4-0.8,6h25.2
				c0.1-0.6,0.2-1.1,0.3-1.7C0.2,48.7,7,34.6,12.2,35.5c1.5,0.3,2.7,1.7,3.6,4.1c0.3,1.4,0.7,2.7,1.1,4C21,57.3,29,67,39.6,68.8
				l0.1,0c18.9,3.1,38.5-20.1,43.9-52C85.5,6.3,85.5-4.4,83.7-14.8z"/>
		</g>
	</g>
</g>
</svg>
